<svg width="1593" height="297" viewBox="0 0 1593 297" fill="none" xmlns="http://www.w3.org/2000/svg">
<g clip-path="url(#clip0_294_130)">
<path d="M197.721 243.654L288.109 219.835L298.644 181.823L332.583 57.3157H249.897L251.934 65.4541L273.848 145.795L276.531 154.777C277.674 159.641 277.674 164.454 276.531 169.069L276.184 170.161C275.985 170.657 275.488 170.955 274.991 170.955C274.444 170.955 274.047 170.558 273.898 170.062L243.089 57.2661H164.726L208.753 218.346L243.387 209.612C243.387 209.612 243.586 209.612 243.686 209.612C243.934 209.612 244.232 209.711 244.381 209.86C244.679 210.108 244.878 210.456 244.878 210.803V214.475C244.878 215.021 244.481 215.468 243.984 215.616L237.971 217.304L203.585 226.286C189.82 229.313 179.733 233.63 173.671 238.989C166.664 246.036 163.186 253.232 163.434 260.427C163.633 267.622 166.813 274.371 172.925 280.475C179.087 286.629 187.038 290.896 196.578 293.278C206.218 295.71 217.697 296.95 230.666 296.95C261.227 296.95 291.936 291.988 321.949 282.262V217.304L312.408 219.934L199.262 249.262C197.721 249.559 196.529 249.361 195.734 248.666C194.789 247.922 194.442 246.83 194.839 245.738C195.088 244.994 195.783 243.952 197.771 243.604L197.721 243.654Z" fill="#EDF738"/>
<path d="M479.917 58.8542C466.302 51.4602 452.041 50.6166 437.531 56.2241C421.083 62.4271 410.598 75.6271 406.225 95.3279V95.2286C406.225 95.2286 405.729 98.4046 403.194 98.5038C400.66 98.5534 400.511 94.9309 400.511 94.9309V95.0301L400.163 57.0181H342.124V267.623H414.176V211.796C414.176 211.15 414.723 210.605 415.369 210.605H458.103C469.482 210.605 479.371 206.486 487.471 198.447C495.52 190.358 499.645 180.483 499.645 169.119V90.4647C499.645 76.3715 493.185 66 479.917 58.8542ZM421.282 194.824C421.282 195.469 420.735 196.015 420.089 196.015H415.418C414.772 196.015 414.226 195.469 414.226 194.824V115.823C414.226 112.101 416.164 109.818 419.891 109.322C420.288 109.322 420.586 109.322 420.835 109.62C421.133 109.868 421.282 110.215 421.282 110.513V194.874V194.824Z" fill="#EDF738"/>
<path d="M626.208 57.415C614.581 54.2887 601.76 52.6511 588.095 52.6511C574.43 52.6511 561.61 54.2887 549.833 57.415C538.205 60.591 528.366 65.8511 520.664 72.997C513.012 80.0436 509.186 88.4301 509.186 97.809V168.474C509.186 177.853 513.062 186.14 520.664 193.087C528.366 200.134 538.205 205.394 549.883 208.669C561.61 211.944 574.48 213.632 588.095 213.632C601.711 213.632 614.581 211.944 626.208 208.669C637.737 205.394 647.526 200.134 655.228 193.087C662.831 186.14 666.657 177.853 666.657 168.474V134.977H594.605V188.77C594.605 192.492 592.667 194.725 588.94 195.271C588.592 195.271 588.244 195.171 587.996 194.973C587.747 194.725 587.549 194.377 587.549 194.08V129.072C587.549 128.427 588.095 127.881 588.741 127.881H666.657V97.7594C666.657 88.3805 662.781 79.994 655.228 72.9474C647.526 65.8015 637.737 60.5414 626.208 57.3654V57.415ZM594.654 112.448C594.654 113.093 594.108 113.639 593.462 113.639H588.791C588.195 113.639 587.598 113.093 587.598 112.448V77.4632C587.598 73.4932 589.586 71.1113 593.313 70.615C593.661 70.615 593.959 70.615 594.257 70.9128C594.505 71.1609 594.654 71.5083 594.654 71.806V112.498V112.448Z" fill="#EDF738"/>
<path d="M783.481 52.9489C776.574 51.9068 769.369 53.4947 762.064 57.6631C761.12 58.209 760.275 58.9534 759.381 59.5489L759.53 59.3007C734.436 76.421 734.634 57.018 734.634 57.018H676.247V210.654H748.3V115.823C748.3 112.101 750.237 109.818 753.964 109.322C754.362 109.322 754.66 109.322 754.908 109.62C755.207 109.868 755.356 110.215 755.356 110.513V139.344H809.37V84.8571C809.37 76.2722 806.736 69.0271 801.668 63.2707C796.55 57.5639 790.438 54.0902 783.481 52.9985V52.9489Z" fill="#EDF738"/>
<path d="M935.884 57.415C924.256 54.2887 911.436 52.6511 897.82 52.6511C884.205 52.6511 871.285 54.2887 859.558 57.415C847.881 60.591 838.042 65.8511 830.34 72.997C822.737 80.0436 818.911 88.4301 818.911 97.809V168.474C818.911 177.853 822.787 186.14 830.34 193.087C838.042 200.134 847.881 205.394 859.558 208.669C871.285 211.944 884.155 213.632 897.82 213.632C911.486 213.632 924.256 211.944 935.884 208.669C947.412 205.394 957.201 200.134 964.904 193.087C972.556 186.14 976.382 177.853 976.382 168.474V134.977H904.33V188.77C904.33 192.492 902.342 194.725 898.616 195.271C898.268 195.271 897.97 195.171 897.671 194.973C897.423 194.725 897.274 194.377 897.274 194.08V129.072C897.274 128.427 897.82 127.881 898.466 127.881H976.382V97.7594C976.382 88.3805 972.506 79.994 964.904 72.9474C957.201 65.8015 947.412 60.5414 935.884 57.3654V57.415ZM904.38 112.448C904.38 113.093 903.833 113.639 903.187 113.639H898.516C897.87 113.639 897.324 113.093 897.324 112.448V77.4632C897.324 73.4932 899.262 71.1113 902.988 70.615C903.386 70.615 903.684 70.615 903.933 70.9128C904.231 71.1609 904.38 71.5083 904.38 71.806V112.498V112.448Z" fill="#EDF738"/>
<path d="M1120.64 57.5143C1114.23 54.5369 1107.17 52.9985 1099.62 52.9985C1092.06 52.9985 1085.01 54.2391 1079.39 56.7203C1077.75 57.4647 1076.16 58.4572 1074.57 59.5489C1054.3 73.394 1051.17 62.179 1050.67 58.2091V57.0181H1050.57V56.9188V57.0181H993.973V121.629H1064.34V106.146C1064.34 102.424 1066.27 100.141 1070 99.6451H1070.2C1070.5 99.6451 1070.8 99.7444 1070.94 99.9429C1071.24 100.191 1071.39 100.489 1071.39 100.836V125.499C1071.39 126.095 1070.94 126.541 1070.4 126.641L1021 135.623C1010.22 137.806 1001.58 142.57 995.364 149.914C989.103 157.209 985.973 166.39 985.973 177.158C985.973 187.926 990.345 197.107 999.041 204.054C1007.84 211.051 1018.27 214.624 1030.2 214.624C1042.47 214.823 1053.5 211.498 1062.7 204.65C1071.84 197.901 1077.8 186.636 1080.39 171.253C1080.49 170.657 1080.98 170.26 1081.58 170.26H1083.91C1084.56 170.26 1085.11 170.806 1085.11 171.451V210.605H1142.15V90.4647C1142.15 83.17 1140.16 76.57 1136.19 70.8136C1132.16 65.0076 1127 60.591 1120.64 57.5143ZM1071.44 158.797C1071.44 164.553 1069.55 167.729 1065.73 168.325H1065.58C1065.28 168.325 1064.98 168.226 1064.78 168.027C1064.53 167.779 1064.39 167.432 1064.39 167.134V142.123C1064.39 141.528 1064.78 141.081 1065.33 140.932L1070 139.94C1070.35 139.94 1070.7 139.94 1070.99 140.188C1071.24 140.436 1071.44 140.734 1071.44 141.131V158.797Z" fill="#EDF738"/>
<path d="M1212.07 0L1152.04 16.7233V31.1639C1152.04 31.4617 1151.94 31.7594 1151.69 31.9579V210.654H1230.11V55.8271C1230.11 55.4797 1230.25 55.2316 1230.45 54.9835L1230.11 0.0496241H1212.07V0Z" fill="#EDF738"/>
<path d="M1321.34 57.3158H1242.58V210.605H1321.34V57.3158Z" fill="#EDF738"/>
<path d="M1311.85 7.64211C1303.65 2.58045 1293.56 0 1281.93 0C1270.31 0 1260.22 2.58045 1252.02 7.69173C1243.87 12.7038 1239.89 18.609 1239.89 25.6556C1239.89 32.7023 1243.87 38.7068 1252.02 43.8677C1260.22 49.0782 1270.31 51.6586 1281.93 51.6586C1293.56 51.6586 1303.65 49.0286 1311.85 43.8677C1320 38.6571 1323.97 32.7519 1323.97 25.6556C1323.97 18.5594 1320 12.7038 1311.85 7.64211Z" fill="#EDF738"/>
<path d="M1458.59 135.97L1456 135.672L1412.82 126.641C1412.27 126.541 1411.88 126.045 1411.88 125.499V100.489C1411.88 100.141 1412.02 99.8436 1412.32 99.5955C1412.57 99.3474 1412.87 99.2482 1413.27 99.2978C1416.99 99.8436 1418.93 102.226 1418.93 106.146V121.629H1489.64V57.0181H1432.65V57.7128C1432.3 61.1369 1429.47 74.2376 1405.02 59.2512L1405.12 59.4497C1403.23 58.3083 1401.34 57.3158 1399.35 56.5715C1392.84 54.1895 1385.54 52.9985 1377.69 52.9985C1365.81 52.9985 1355.33 56.5218 1346.53 63.5685C1337.89 70.5158 1333.46 79.5474 1333.46 90.4647V91.4572C1333.46 101.382 1336.49 110.116 1342.56 117.51C1348.57 124.953 1356.52 129.717 1366.21 131.603L1368.5 131.95L1411.63 140.932C1412.22 141.081 1412.57 141.528 1412.57 142.123V166.787C1412.57 167.134 1412.42 167.432 1412.17 167.68C1411.88 167.878 1411.58 168.027 1411.23 167.928C1407.5 167.382 1405.52 165.149 1405.52 161.427V145.944H1335.1V210.555H1391.8V209.364C1392.3 205.642 1395.63 194.973 1417.09 206.337C1425.69 211.746 1435.73 214.574 1447.06 214.574C1458.39 214.574 1469.12 211.002 1477.87 204.005C1486.56 197.057 1490.93 188.026 1490.93 177.108V176.116C1490.93 166.191 1487.9 157.457 1481.89 150.014C1475.88 142.57 1468.03 137.856 1458.54 135.92L1458.59 135.97Z" fill="#EDF738"/>
<path d="M1580.13 71.3098H1592.95V57.018H1580.13C1579.48 57.018 1578.94 56.4722 1578.94 55.8271V14.6887H1560.95L1500.52 31.0647V177.158C1500.52 189.266 1506.54 198.645 1518.81 205.791C1531.23 213.036 1545.2 215.914 1560.35 214.326C1571.38 213.135 1592.95 205.593 1592.95 185.941C1590.86 186.041 1586.89 185.941 1584.5 184.502C1580.83 182.319 1578.94 179.044 1578.94 174.826V72.5008C1578.94 71.8556 1579.48 71.3098 1580.13 71.3098Z" fill="#EDF738"/>
<path d="M163.832 210.654V89.1744C163.832 75.8752 158.614 65.8015 148.328 59.1519C137.396 51.8572 125.619 50.7654 113.445 55.9263C98.7861 62.179 89.146 75.4782 84.7235 95.3278V95.2286C84.7235 95.2286 84.2266 98.4045 81.5432 98.5038C78.8599 98.5534 78.7108 94.9308 78.7108 94.9308L78.0648 0H60.3748L0 16.7233V210.654H78.0648V127.038C78.0648 123.068 80.0028 120.686 83.7296 120.189C84.1272 120.189 84.4253 120.189 84.6738 120.487C84.9719 120.735 85.121 121.033 85.121 121.38V210.654H163.832Z" fill="#EDF738"/>
</g>
<defs>
<clipPath id="clip0_294_130">
<rect width="1593" height="297" fill="white"/>
</clipPath>
</defs>
</svg>
